<svg width="32" height="32" viewBox="0 0 32 32" fill="none" xmlns="http://www.w3.org/2000/svg">
<g clip-path="url(#clip0_238_456)">
<path d="M5.8815 15.5915C5.21863 15.5634 4.63812 15.5387 4.13285 15.5167C4.31829 11.0388 7.04012 6.85727 11.4531 5.02936C12.8337 4.45748 14.2605 4.16885 15.6703 4.13027L14.9235 5.93318C13.9831 6.03391 13.0409 6.26588 12.1228 6.64614C8.35901 8.20516 6.03833 11.7721 5.8815 15.5915ZM20.5418 26.9715C19.1972 27.5284 17.8089 27.8188 16.4351 27.8692L17.1866 26.0548C18.0887 25.9477 18.9916 25.7194 19.8721 25.3547C23.6365 23.7955 25.9587 20.2277 26.1149 16.4077C26.6851 16.4301 27.2675 16.4534 27.8622 16.4767C27.6795 20.9575 24.9573 25.1426 20.5418 26.9715Z" fill="#00A7FF"/>
<rect x="24.8975" y="4.43237" width="7.4042" height="7.4042" rx="1.27684" transform="rotate(112.5 24.8975 4.43237)" fill="#00A7FF"/>
<rect x="17.0171" y="23.4592" width="7.4057" height="7.4057" rx="1.27684" transform="rotate(112.5 17.0171 23.4592)" fill="#00A7FF"/>
</g>
<defs>
<clipPath id="clip0_238_456">
<rect width="32" height="32" fill="white"/>
</clipPath>
</defs>
</svg>
