<svg width="32" height="32" viewBox="0 0 32 32" fill="none" xmlns="http://www.w3.org/2000/svg">
<g clip-path="url(#clip0_238_446)">
<path d="M6.4954 19.4943C5.87224 19.722 5.32646 19.9213 4.85124 20.0943C3.30894 15.8863 4.22339 10.9815 7.60095 7.60396C8.65763 6.54728 9.86535 5.73461 11.1531 5.15947V7.11092C10.3228 7.56384 9.54103 8.13875 8.83838 8.8414C5.9577 11.7221 5.1787 15.9056 6.4954 19.4943ZM24.3947 24.3977C23.3656 25.4269 22.1941 26.2264 20.9441 26.7987V24.8349C21.7365 24.3906 22.4833 23.8343 23.1573 23.1603C26.0384 20.2792 26.8185 16.0944 25.501 12.5054C26.0364 12.3079 26.5833 12.1065 27.1417 11.9005C28.6876 16.1101 27.7742 21.0183 24.3947 24.3977Z" fill="#00A7FF"/>
<rect x="19.7935" y="1.90747" width="7.4042" height="7.4042" rx="1.27684" transform="rotate(90 19.7935 1.90747)" fill="#00A7FF"/>
<rect x="19.7941" y="22.5017" width="7.4057" height="7.4057" rx="1.27684" transform="rotate(90 19.7941 22.5017)" fill="#00A7FF"/>
</g>
<defs>
<clipPath id="clip0_238_446">
<rect width="32" height="32" fill="white"/>
</clipPath>
</defs>
</svg>
