<svg width="32" height="32" viewBox="0 0 32 32" fill="none" xmlns="http://www.w3.org/2000/svg">
<g clip-path="url(#clip0_238_406)">
<path d="M19.4929 25.5034C19.7206 26.1265 19.9199 26.6723 20.093 27.1475C15.885 28.6898 10.9802 27.7754 7.60262 24.3978C6.54594 23.3412 5.73327 22.1334 5.15813 20.8457H7.10958C7.5625 21.676 8.13741 22.4578 8.84006 23.1604C11.7207 26.0411 15.9043 26.8201 19.4929 25.5034ZM24.3964 7.60405C25.4255 8.63316 26.225 9.80473 26.7974 11.0546H24.8335C24.3893 10.2623 23.8329 9.51544 23.159 8.84148C20.2779 5.96037 16.093 5.18029 12.504 6.49781C12.3065 5.96239 12.1052 5.41546 11.8991 4.8571C16.1087 3.31123 21.017 4.22463 24.3964 7.60405Z" fill="#00A7FF"/>
<rect x="1.90613" y="12.2053" width="7.4042" height="7.4042" rx="1.27684" fill="#00A7FF"/>
<rect x="22.5002" y="12.2046" width="7.4057" height="7.4057" rx="1.27684" fill="#00A7FF"/>
</g>
<defs>
<clipPath id="clip0_238_406">
<rect width="32" height="32" fill="white"/>
</clipPath>
</defs>
</svg>
