<svg width="32" height="32" viewBox="0 0 32 32" fill="none" xmlns="http://www.w3.org/2000/svg">
<g clip-path="url(#clip0_238_466)">
<path d="M9.13354 8.5571C8.68469 8.06851 8.29169 7.64055 7.94995 7.26773C11.2475 4.23248 16.1288 3.20035 20.5418 5.02826C21.9224 5.60013 23.1354 6.40493 24.1596 7.37452L22.3567 8.1213C21.6205 7.52759 20.7902 7.02532 19.8721 6.64505C16.1083 5.08604 11.9451 5.96731 9.13354 8.5571ZM11.4531 26.9704C10.1085 26.4135 8.92151 25.637 7.91438 24.7013L9.72877 23.9497C10.4424 24.5118 11.2422 24.9889 12.1228 25.3536C15.8871 26.9129 20.052 26.0321 22.8636 23.4414C23.2509 23.8605 23.6463 24.2887 24.0503 24.7257C20.7527 27.7649 15.8685 28.7993 11.4531 26.9704Z" fill="#00A7FF"/>
<rect x="30.4705" y="14.1125" width="7.4042" height="7.4042" rx="1.27684" transform="rotate(157.5 30.4705 14.1125)" fill="#00A7FF"/>
<rect x="11.4442" y="21.9944" width="7.4057" height="7.4057" rx="1.27684" transform="rotate(157.5 11.4442 21.9944)" fill="#00A7FF"/>
</g>
<defs>
<clipPath id="clip0_238_466">
<rect width="32" height="32" fill="white"/>
</clipPath>
</defs>
</svg>
