<svg width="32" height="32" viewBox="0 0 32 32" fill="none" xmlns="http://www.w3.org/2000/svg">
<g clip-path="url(#clip0_238_416)">
<path d="M15.5901 26.1174C15.5621 26.7803 15.5373 27.3608 15.5153 27.8661C11.0374 27.6806 6.85593 24.9588 5.02801 20.5458C4.45614 19.1652 4.16751 17.7384 4.12893 16.3286L5.93183 17.0754C6.03256 18.0158 6.26453 18.958 6.6448 19.8761C8.20382 23.6399 11.7708 25.9606 15.5901 26.1174ZM26.9702 11.4571C27.5271 12.8017 27.8174 14.19 27.8679 15.5638L26.0535 14.8123C25.9463 13.9102 25.7181 13.0073 25.3534 12.1268C23.7941 8.3624 20.2264 6.04024 16.4064 5.88402C16.4288 5.31376 16.4521 4.73141 16.4754 4.13671C20.9561 4.31945 25.1412 7.04164 26.9702 11.4571Z" fill="#00A7FF"/>
<rect x="4.43103" y="7.10132" width="7.4042" height="7.4042" rx="1.27684" transform="rotate(22.5 4.43103 7.10132)" fill="#00A7FF"/>
<rect x="23.4579" y="14.9819" width="7.4057" height="7.4057" rx="1.27684" transform="rotate(22.5 23.4579 14.9819)" fill="#00A7FF"/>
</g>
<defs>
<clipPath id="clip0_238_416">
<rect width="32" height="32" fill="white"/>
</clipPath>
</defs>
</svg>
