<svg width="32" height="32" viewBox="0 0 32 32" fill="none" xmlns="http://www.w3.org/2000/svg">
<g clip-path="url(#clip0_238_436)">
<path d="M8.556 22.8652C8.06742 23.3141 7.63945 23.7071 7.26663 24.0488C4.23138 20.7513 3.19925 15.8699 5.02716 11.457C5.59904 10.0763 6.40383 8.86335 7.37342 7.83921L8.1202 9.64211C7.5265 10.3783 7.02422 11.2086 6.64395 12.1267C5.08494 15.8904 5.96621 20.0536 8.556 22.8652ZM26.9693 20.5457C26.4124 21.8903 25.6359 23.0773 24.7002 24.0844L23.9486 22.27C24.5107 21.5564 24.9878 20.7566 25.3525 19.876C26.9118 16.1116 26.031 11.9468 23.4403 9.13523C23.8594 8.74784 24.2876 8.35252 24.7246 7.94849C27.7638 11.2461 28.7982 16.1303 26.9693 20.5457Z" fill="#00A7FF"/>
<rect x="14.1116" y="1.52832" width="7.4042" height="7.4042" rx="1.27684" transform="rotate(67.5 14.1116 1.52832)" fill="#00A7FF"/>
<rect x="21.9932" y="20.5547" width="7.4057" height="7.4057" rx="1.27684" transform="rotate(67.5 21.9932 20.5547)" fill="#00A7FF"/>
</g>
<defs>
<clipPath id="clip0_238_436">
<rect width="32" height="32" fill="white"/>
</clipPath>
</defs>
</svg>
