<svg width="32" height="32" viewBox="0 0 32 32" fill="none" xmlns="http://www.w3.org/2000/svg">
<g clip-path="url(#clip0_238_426)">
<path d="M11.7496 25.1909C11.47 25.7926 11.225 26.3194 11.0114 26.7778C6.94525 24.8929 4.12366 20.778 4.12366 16.0015C4.12366 14.5071 4.403 13.0785 4.90686 11.7612L6.28674 13.1411C6.01995 14.0484 5.87366 15.0078 5.87366 16.0015C5.87366 20.0754 8.28104 23.5844 11.7496 25.1909ZM27.8737 16.0015C27.8737 17.4568 27.6106 18.8506 27.1315 20.1392L25.7428 18.7505C25.989 17.8761 26.1237 16.9546 26.1237 16.0015C26.1237 11.927 23.7161 8.41623 20.2467 6.81006C20.4856 6.29179 20.73 5.76268 20.9791 5.22217C25.0489 7.1057 27.8737 11.2222 27.8737 16.0015Z" fill="#00A7FF"/>
<rect x="8.71704" y="3.35205" width="7.4042" height="7.4042" rx="1.27684" transform="rotate(45 8.71704 3.35205)" fill="#00A7FF"/>
<rect x="23.2798" y="17.9138" width="7.4057" height="7.4057" rx="1.27684" transform="rotate(45 23.2798 17.9138)" fill="#00A7FF"/>
</g>
<defs>
<clipPath id="clip0_238_426">
<rect width="32" height="32" fill="white"/>
</clipPath>
</defs>
</svg>
