<svg width="32" height="32" viewBox="0 0 32 32" fill="none" xmlns="http://www.w3.org/2000/svg">
<g clip-path="url(#clip0_238_476)">
<path d="M27.0918 11.7598C27.5957 13.077 27.875 14.5056 27.875 16C27.875 22.5584 22.5584 27.875 16 27.875C14.5056 27.875 13.077 27.5957 11.7598 27.0918L13.1396 25.7119C14.047 25.9787 15.0063 26.125 16 26.125C21.5919 26.125 26.125 21.5919 26.125 16C26.125 15.0063 25.9787 14.047 25.7119 13.1396L27.0918 11.7598ZM16 4.125C17.4554 4.125 18.8491 4.38809 20.1377 4.86719L18.749 6.25586C17.8746 6.00967 16.9531 5.875 16 5.875C10.4081 5.875 5.875 10.4081 5.875 16C5.875 16.9531 6.00967 17.8746 6.25586 18.749L4.86816 20.1377C4.38899 18.8491 4.125 17.4555 4.125 16C4.125 9.44162 9.44162 4.125 16 4.125Z" fill="#00A7FF"/>
<rect x="3.35059" y="23.2817" width="7.4042" height="7.4042" rx="1.27684" transform="rotate(-45 3.35059 23.2817)" fill="#00A7FF"/>
<rect x="17.9125" y="8.71899" width="7.4057" height="7.4057" rx="1.27684" transform="rotate(-45 17.9125 8.71899)" fill="#00A7FF"/>
</g>
<defs>
<clipPath id="clip0_238_476">
<rect width="32" height="32" fill="white"/>
</clipPath>
</defs>
</svg>
