<svg width="32" height="32" viewBox="0 0 32 32" fill="none" xmlns="http://www.w3.org/2000/svg">
<g clip-path="url(#clip0_253_13)">
<circle cx="16" cy="16" r="16" fill="#00A7FF"/>
<path d="M25.1895 20.249C25.7911 20.5286 26.318 20.7736 26.7764 20.9873C24.8914 25.0534 20.7766 27.875 16 27.875C14.5056 27.875 13.077 27.5957 11.7598 27.0918L13.1396 25.7119C14.047 25.9787 15.0063 26.125 16 26.125C20.0739 26.125 23.583 23.7176 25.1895 20.249ZM16 4.125C17.4554 4.125 18.8491 4.38809 20.1377 4.86719L18.749 6.25586C17.8746 6.00967 16.9531 5.875 16 5.875C11.9255 5.875 8.41477 8.28253 6.80859 11.752C6.29032 11.513 5.76121 11.2687 5.2207 11.0195C7.10423 6.9498 11.2208 4.125 16 4.125Z" fill="white"/>
<rect x="3.35059" y="23.2817" width="7.4042" height="7.4042" rx="1.27684" transform="rotate(-45 3.35059 23.2817)" fill="white"/>
<rect x="17.9125" y="8.71899" width="7.4057" height="7.4057" rx="1.27684" transform="rotate(-45 17.9125 8.71899)" fill="white"/>
</g>
<defs>
<clipPath id="clip0_253_13">
<rect width="32" height="32" fill="white"/>
</clipPath>
</defs>
</svg>
